<svg width="105" height="78" viewBox="0 0 105 78" fill="black" xmlns="http://www.w3.org/2000/svg">
<g filter="url(#filter0_d_890_908)">
<path d="M18.5354 65.9845L95.8585 57.0116L90.6024 10.1504L13.2793 19.1302L18.5354 65.9845Z" fill={fill}/>
</g>
<path d="M67.769 47.7757C63.8234 48.4622 59.7669 47.9214 55.8283 47.221C53.4707 46.798 51.4875 46.3334 48.8248 45.7232C50.8981 42.0966 52.9368 38.5186 55.0101 34.892C55.225 34.5176 55.3984 34.053 55.7936 33.8866C56.4524 33.6023 57.2706 33.5537 58.0403 33.4636L54.7258 39.5587C54.3652 40.2313 54.1017 40.7653 53.9422 41.1605C53.7758 41.5558 53.7064 41.8747 53.7342 42.1244C53.7827 42.6514 54.1433 42.8871 54.8021 42.8247C55.2736 42.7831 55.7104 42.6098 56.1195 42.3116C56.5286 42.0134 56.9932 41.5766 57.5064 41.008C57.5896 40.9178 57.6728 40.8208 57.756 40.7237C57.6867 40.8832 57.6381 41.0218 57.6035 41.1397C57.548 41.3339 57.5272 41.5211 57.548 41.7014C57.5757 41.958 57.6797 42.159 57.8739 42.2977C58.0681 42.4364 58.3177 42.4988 58.6436 42.4641C58.9834 42.4295 59.3509 42.2977 59.7323 42.055C60.1206 41.8123 60.5713 41.4102 61.0844 40.8485C61.1191 40.8069 61.1537 40.7722 61.1884 40.7306C60.9249 41.2091 60.6684 41.6875 60.4118 42.166L61.8818 41.9857C61.9858 41.7569 62.1315 41.4726 62.3187 41.1467C62.5059 40.8207 62.714 40.474 62.9497 40.1204C63.1855 39.7668 63.442 39.4062 63.7125 39.0456C63.9829 38.685 64.2534 38.366 64.5238 38.0748C64.7942 37.7905 65.0508 37.5478 65.2935 37.3606C65.5431 37.1734 65.765 37.0693 65.9591 37.0485C66.0978 37.0347 66.2019 37.0555 66.2781 37.1109C66.3544 37.1664 66.396 37.2427 66.4029 37.3398C66.4237 37.5409 66.3405 37.7905 66.1533 38.0818C65.973 38.373 65.765 38.685 65.5431 39.0109C65.3212 39.3368 65.1201 39.6697 64.9398 40.0095C64.7595 40.3492 64.6833 40.6682 64.711 40.9664C64.7318 41.2021 64.8428 41.4101 65.0369 41.5766C65.2311 41.743 65.5084 41.8123 65.8829 41.7777C66.2643 41.743 66.6248 41.6043 66.9577 41.3685C67.2905 41.1328 67.6927 40.7445 68.1504 40.2175C68.296 40.058 68.4277 39.8916 68.5595 39.7252C68.5387 39.9054 68.5317 40.0788 68.5456 40.2591C68.5803 40.5919 68.712 40.8762 68.9409 41.112C69.1766 41.3408 69.4887 41.4379 69.8909 41.4032C70.1544 41.3755 70.404 41.32 70.6328 41.216C70.8616 41.112 71.0766 41.001 71.2777 40.8623C71.4788 40.7237 71.666 40.5711 71.8394 40.3978C72.0127 40.2244 72.1722 40.051 72.3109 39.8638L72.3455 39.8846C72.1514 40.1967 71.9433 40.5503 71.7214 40.9456C71.4995 41.3408 71.2708 41.7361 71.0142 42.1382C70.7576 42.5404 70.4872 42.9357 70.196 43.324C69.9047 43.7123 69.5858 44.066 69.246 44.3849C68.9062 44.7039 68.5387 44.9605 68.1504 45.1685C67.7621 45.3765 67.3321 45.5013 66.8745 45.5429C66.6179 45.5637 66.3891 45.5499 66.181 45.4944C65.973 45.4389 65.7927 45.3488 65.6402 45.2309C65.4876 45.113 65.3628 44.9674 65.2657 44.794C65.1686 44.6207 65.1132 44.4265 65.0924 44.2185C65.0508 43.7747 65.1479 43.4211 65.3836 43.1506C65.6194 42.8802 65.9938 42.7138 66.507 42.6583V42.5682C66.403 42.5682 66.2643 42.5682 66.084 42.5682C65.9037 42.5682 65.7719 42.5682 65.6887 42.582C65.446 42.6028 65.2033 42.6583 64.9745 42.7484C64.7457 42.8386 64.5376 42.9565 64.3643 43.1021C64.1909 43.2477 64.0592 43.4211 63.9621 43.6222C63.865 43.8233 63.8304 44.0382 63.8581 44.2809C63.8858 44.5999 63.9898 44.8565 64.1563 45.0575C64.3227 45.2586 64.5376 45.4181 64.8011 45.5291C65.0646 45.64 65.3559 45.7093 65.6818 45.7371C66.0077 45.7648 66.3544 45.7579 66.715 45.7232C67.4153 45.6539 68.0671 45.5083 68.6635 45.2725C69.2598 45.0367 69.8076 44.7386 70.3069 44.371C70.8061 44.0035 71.2499 43.5736 71.6521 43.0813C71.9919 42.6652 72.2762 42.2006 72.5605 41.7291C72.9904 41.0218 73.9543 39.0872 73.9543 39.0872C74.0305 38.9416 74.0999 38.796 74.1762 38.6503C74.6061 37.7766 75.0429 36.9029 75.4936 36.0431L74.0098 36.265L73.7254 36.8683C73.5798 36.5562 73.3926 36.3413 73.1638 36.2442C72.9349 36.1402 72.6368 36.1055 72.2693 36.1402C71.7908 36.1887 71.3193 36.3482 70.8547 36.6186C70.3901 36.896 69.981 37.2288 69.6204 37.6241C69.2668 38.0193 68.9824 38.4493 68.7814 38.9208C68.7051 39.0941 68.6496 39.2675 68.608 39.4339C68.4624 39.6142 68.3029 39.8014 68.1434 39.9887C67.658 40.5503 67.2628 40.9386 66.9646 41.1605C66.6664 41.3824 66.4515 41.4934 66.3128 41.5072C66.1741 41.5211 66.077 41.4934 66.0077 41.4379C65.9383 41.3824 65.9037 41.2923 65.8968 41.1883C65.8759 40.9386 65.9522 40.6613 66.1325 40.3562C66.3128 40.0511 66.5208 39.7251 66.7427 39.3923C66.9646 39.0525 67.1657 38.7197 67.346 38.3869C67.5263 38.054 67.6026 37.735 67.5748 37.4369C67.554 37.2011 67.45 37.0069 67.2697 36.8613C67.0894 36.7157 66.8398 36.6533 66.5139 36.688C66.1325 36.7226 65.765 36.8683 65.4044 37.1109C65.0438 37.3606 64.711 37.638 64.4059 37.95C64.1008 38.262 63.8304 38.581 63.6015 38.893C63.3727 39.2051 63.1924 39.4547 63.0745 39.6211L63.0399 39.6003L64.711 37.0139L63.0468 37.2219C62.6169 38.0748 62.1731 38.9 61.7293 39.7182C61.6669 39.8222 61.6114 39.9332 61.549 40.0441C61.3895 40.2313 61.2231 40.4255 61.0498 40.6196C60.5574 41.1674 60.1483 41.5558 59.8085 41.7915C59.4687 42.0273 59.2053 42.159 59.0111 42.1729C58.921 42.1799 58.8516 42.1521 58.8031 42.0897C58.7546 42.0273 58.7199 41.9441 58.7129 41.8401C58.6991 41.7083 58.7337 41.535 58.8169 41.3131C58.9001 41.0981 59.0319 40.8138 59.2122 40.4671C59.3925 40.1204 59.6213 39.6974 59.9125 39.2051C60.1968 38.7128 60.5435 38.1164 60.9388 37.423L59.441 37.631C59.0596 38.2898 58.7476 38.8445 58.491 39.2883C58.3108 39.6073 58.1582 39.8846 58.0334 40.1343C57.7352 40.5156 57.4232 40.8762 57.1112 41.216C56.7436 41.6182 56.3969 41.9302 56.0641 42.166C55.7312 42.4017 55.4608 42.5266 55.2597 42.5474C55.0447 42.5682 54.9268 42.4572 54.906 42.2215C54.8852 41.9926 54.9685 41.6875 55.1557 41.2992C55.3429 40.9109 55.6064 40.4255 55.9323 39.8292L59.8293 32.895H59.7808C58.491 33.0198 57.2013 33.1377 56.1195 33.1723C57.0903 31.2516 58.075 29.3169 59.4826 27.6943C60.8903 26.0717 62.7902 24.775 64.9259 24.5254C62.8249 24.2272 60.6961 25.1703 59.1151 26.5849C57.5341 27.9994 56.4177 29.8439 55.3498 31.6815C55.0794 32.153 54.8436 32.6869 54.3929 32.992C53.5053 33.5884 52.6109 33.4774 50.4821 33.6855C52.1393 30.1976 54.1572 26.8068 56.9794 24.1718C59.8085 21.5368 63.5461 19.7131 67.4084 19.8032C69.1281 19.8379 70.9102 20.2956 72.1514 21.4813C73.559 22.8265 74.0444 24.9761 73.6006 26.8692C73.0667 29.1436 71.2222 31.0574 68.9686 31.6815C66.715 32.3056 64.2534 31.834 62.5198 29.941C62.7278 30.156 63.0052 30.5651 63.4074 30.9465C64.4544 31.9519 66.0909 32.3541 67.1518 32.4304C68.5456 32.5275 69.9255 32.3194 70.9518 31.8202C71.9364 31.3417 72.8726 30.6206 73.5798 29.733C74.0236 29.1713 74.3842 28.5472 74.5991 27.8815C75.0984 26.3352 75.0221 24.567 74.301 23.1455C73.774 22.1054 72.8587 21.2317 71.8463 20.6423C70.3832 19.7963 68.6427 19.5259 66.9508 19.5605C62.8873 19.6299 58.8724 21.2247 55.8699 23.9637C53.0893 26.4947 51.2448 29.8509 49.2478 33.0337C49.0259 33.3804 48.8733 33.6716 48.4989 33.8519C47.639 34.2749 46.7376 33.9559 45.7529 34.684C46.6683 34.6146 47.3686 34.573 48.3255 34.4898C46.5018 37.6865 44.6227 41.0149 42.799 44.2116C42.6603 44.4473 42.5216 44.697 42.2928 44.8495C41.9807 45.0575 41.5716 45.0437 41.1902 45.0367C38.7979 44.9674 36.3918 45.2517 34.0827 45.8896C31.8846 46.4929 29.6864 47.4776 28.2857 49.2805C26.885 51.0764 26.5452 53.8431 28.0014 55.5975C29.1109 56.9289 30.9623 57.3935 32.6959 57.4281C35.9133 57.4905 39.0823 56.2978 41.6826 54.4048C44.2829 52.5118 46.3354 49.9461 47.9372 47.1517C48.1036 46.8674 48.2908 46.5484 48.6029 46.4444C48.8387 46.3612 49.1022 46.4166 49.3518 46.479C53.7065 47.5053 58.0681 48.5662 62.5198 49.0239C65.5986 49.3359 68.7952 49.3429 71.6798 48.2195C74.5645 47.0962 77.0885 44.6415 77.567 41.5904C75.563 45.0575 71.6868 47.1378 67.7412 47.8173L67.769 47.7757ZM70.0989 38.9416C70.2376 38.5255 70.4248 38.1234 70.6675 37.735C70.9102 37.3467 71.1945 37.0069 71.5204 36.7226C71.8463 36.4383 72.193 36.2788 72.5536 36.2442C72.6922 36.2303 72.7963 36.2442 72.8795 36.2858C72.9627 36.3274 73.0251 36.3829 73.0736 36.4591C73.1222 36.5354 73.1568 36.6186 73.1776 36.7088C73.1984 36.7989 73.2193 36.896 73.2262 36.9931C73.2401 37.1595 73.2262 37.3675 73.1707 37.6172C73.1152 37.8668 73.032 38.1303 72.9211 38.4077C72.8101 38.685 72.6714 38.9624 72.512 39.2467C72.3525 39.531 72.1791 39.7806 71.9919 40.0095C71.8047 40.2383 71.6105 40.4255 71.4094 40.578C71.2084 40.7306 71.0073 40.8138 70.7992 40.8346C70.4664 40.8693 70.2445 40.7999 70.1335 40.6335C70.0226 40.4671 69.9533 40.2521 69.9255 40.0025C69.8978 39.7113 69.9532 39.3576 70.0919 38.9485L70.0989 38.9416ZM45.635 48.594C43.7489 51.4925 41.4745 54.0026 38.375 55.6391C36.3502 56.707 34.2214 57.3033 31.9054 56.7971C29.6171 56.2909 28.5423 54.5088 28.7434 52.1789C28.9653 49.648 30.9415 47.7203 33.4032 46.7495C37.321 45.2101 42.0431 45.5568 42.0431 45.5568C40.1432 48.3443 38.6246 51.0417 34.5542 51.5341C34.5542 51.5341 35.7469 51.5549 36.683 51.3746C38.6107 51.0001 40.4691 49.7866 41.8975 48.0184C42.4176 47.3736 42.8406 46.6455 43.3398 45.9867C43.4716 45.8134 43.7559 45.6192 43.9293 45.64C44.8654 45.7579 46.065 45.8758 47.1259 46.1046C46.5712 47.0268 46.1621 47.7757 45.6281 48.594H45.635ZM47.75 45.0021C47.5212 45.4181 47.0704 45.4736 46.7306 45.4459C46.162 45.3973 45.4756 45.3072 45.0595 45.2517C44.8307 45.224 44.3522 45.1685 43.8599 45.0714C44.4701 43.9897 45.004 43.0258 45.5518 42.0689C46.9595 39.5934 48.374 37.111 49.8025 34.6424C49.9134 34.4482 49.9967 34.2887 50.1977 34.261C51.1963 34.1293 52.4444 34.0877 53.4499 33.9975C53.6094 33.9836 53.6856 33.9767 53.9769 33.9559C53.5539 34.7048 53.1795 35.3774 52.8119 36.0292C51.1061 39.0456 49.4419 41.9718 47.7569 44.9951L47.75 45.0021Z" fill="#FFADEF"/>
<path d="M80.4297 17.0703L83.3212 23.5468C83.8344 24.6909 83.238 26.0639 81.9899 26.6256L81.9275 26.6533C80.6793 27.2081 79.2578 26.7296 78.7516 25.5855L72.9546 12.5908C72.4415 11.4467 73.0378 10.0737 74.286 9.51202L74.3484 9.48427C75.5203 8.96421 76.8516 9.35253 77.4272 10.358L77.9264 10.1361C77.3301 8.79779 75.6659 8.23613 74.2028 8.88794L73.9185 9.01275C72.4623 9.66457 71.762 11.2733 72.3583 12.6116L78.3494 26.0501C78.9457 27.3884 80.61 27.95 82.0731 27.2982L82.3574 27.1734C83.8136 26.5216 84.5139 24.9128 83.9176 23.5745L80.922 16.8553L80.4297 17.0772V17.0703Z" fill="#B7B7B7" stroke="#B7B7B7" stroke-width="0.51" stroke-miterlimit="10"/>
<path d="M60.946 34.6422C60.7865 34.7948 60.7172 34.9751 60.738 35.1762C60.7588 35.3773 60.8489 35.5229 61.0153 35.613C61.1817 35.6962 61.369 35.7309 61.5839 35.7101C61.7781 35.6893 61.9445 35.5992 62.0902 35.4397C62.2288 35.2802 62.2981 35.1138 62.2773 34.9335C62.2635 34.7671 62.1733 34.6284 62.0208 34.5174C61.8682 34.4065 61.6949 34.3579 61.5146 34.3787C61.2927 34.3995 61.0985 34.4897 60.9391 34.6422H60.946Z" fill="#FFADEF"/>
<defs>
<filter id="filter0_d_890_908" x="0.879297" y="0.750391" width="103.379" height="76.634" filterUnits="userSpaceOnUse" color-interpolation-filters="sRGB">
<feFlood flood-opacity="0" result="BackgroundImageFix"/>
<feColorMatrix in="SourceAlpha" type="matrix" values="0 0 0 0 0 0 0 0 0 0 0 0 0 0 0 0 0 0 127 0" result="hardAlpha"/>
<feOffset dx="-2" dy="1"/>
<feGaussianBlur stdDeviation="5.2"/>
<feComposite in2="hardAlpha" operator="out"/>
<feColorMatrix type="matrix" values="0 0 0 0 0 0 0 0 0 0 0 0 0 0 0 0 0 0 0.1 0"/>
<feBlend mode="normal" in2="BackgroundImageFix" result="effect1_dropShadow_890_908"/>
<feBlend mode="normal" in="SourceGraphic" in2="effect1_dropShadow_890_908" result="shape"/>
</filter>
</defs>
</svg>
