<svg width="16" height="16" viewBox="0 0 16 16" fill="none" xmlns="http://www.w3.org/2000/svg">
<path d="M4.93925 10.5059L1.62542 6.91846C1.44686 6.72515 1.20467 6.61655 0.952148 6.61655C0.699623 6.61655 0.45744 6.72515 0.278878 6.91846C0.100315 7.11176 0 7.37394 0 7.64731C0 7.78267 0.0246282 7.91671 0.0724782 8.04176C0.120328 8.16682 0.190463 8.28045 0.278878 8.37617L4.27075 12.6976C4.6432 13.1008 5.24484 13.1008 5.61729 12.6976L15.7211 1.75961C15.8997 1.56631 16 1.30413 16 1.03076C16 0.757383 15.8997 0.495206 15.7211 0.301902C15.5426 0.108597 15.3004 0 15.0479 0C14.7953 0 14.5531 0.108597 14.3746 0.301902L4.93925 10.5059Z" fill="#959595"/>
</svg>
