<svg width="17" height="16" viewBox="0 0 17 16" fill="none" xmlns="http://www.w3.org/2000/svg">
<path d="M16.162 14.0394C16.3766 14.254 16.4971 14.5451 16.4971 14.8486C16.4971 15.1521 16.3766 15.4431 16.162 15.6577C15.9474 15.8724 15.6563 15.9929 15.3528 15.9929C15.0493 15.9929 14.7582 15.8724 14.5436 15.6577L8.49952 9.61175L2.45353 15.6558C2.23892 15.8705 1.94785 15.991 1.64435 15.991C1.34085 15.991 1.04978 15.8705 0.835173 15.6558C0.620565 15.4412 0.5 15.1502 0.5 14.8467C0.5 14.5432 0.620565 14.2521 0.835173 14.0375L6.88117 7.9934L0.837077 1.9474C0.622469 1.73279 0.501904 1.44172 0.501904 1.13822C0.501904 0.834723 0.622469 0.543652 0.837077 0.329045C1.05168 0.114437 1.34275 -0.00612826 1.64626 -0.00612826C1.94976 -0.00612827 2.24083 0.114437 2.45543 0.329045L8.49952 6.37504L14.5455 0.328093C14.7601 0.113485 15.0512 -0.00708008 15.3547 -0.00708008C15.6582 -0.00708007 15.9493 0.113485 16.1639 0.328093C16.3785 0.5427 16.499 0.83377 16.499 1.13727C16.499 1.44077 16.3785 1.73184 16.1639 1.94645L10.1179 7.9934L16.162 14.0394Z" fill="black"/>
</svg>
