<svg width="20" height="25" viewBox="0 0 20 25" fill="none" xmlns="http://www.w3.org/2000/svg">
<circle cx="10" cy="11.6683" r="10" fill="#959595"/>
<path d="M5.93042 11.6558C5.93042 10.1958 6.3007 9.0363 7.04126 8.17725C7.78182 7.3182 8.85034 6.88867 10.2468 6.88867C11.0509 6.88867 11.7322 7.01351 12.2908 7.26318C12.8494 7.51286 13.2429 7.87467 13.4714 8.34863C13.6238 8.66178 13.5984 8.87337 13.3953 8.9834L12.6335 9.38965C12.3669 9.53353 12.1469 9.45312 11.9734 9.14844C11.8634 8.95378 11.6581 8.77816 11.3577 8.62158C11.0614 8.46501 10.7123 8.38672 10.3103 8.38672C9.42163 8.38672 8.79956 8.66813 8.44409 9.23096C8.08862 9.78955 7.91089 10.5978 7.91089 11.6558C7.91089 12.7137 8.08862 13.5241 8.44409 14.0869C8.79956 14.6455 9.42163 14.9248 10.3103 14.9248C10.7885 14.9248 11.1905 14.8169 11.5164 14.6011C11.8464 14.3853 12.075 14.18 12.2019 13.9854C12.4093 13.668 12.6293 13.5876 12.8621 13.7441L13.6238 14.252C13.8311 14.3916 13.8523 14.6032 13.6873 14.8867C13.4418 15.3099 13.0208 15.6717 12.4241 15.9722C11.8274 16.2726 11.1016 16.4229 10.2468 16.4229C8.8715 16.4229 7.80721 15.9933 7.05396 15.1343C6.30493 14.2752 5.93042 13.1157 5.93042 11.6558Z" fill="white"/>
</svg>
