<svg width="16" height="16" viewBox="0 0 16 16" fill="#959595" xmlns="http://www.w3.org/2000/svg">
<g clip-path="url(#clip0_443_8)">
<path d="M8.68 16C7.96 16 7.35333 15.7533 6.86 15.26C6.36667 14.7667 6.12 14.1733 6.12 13.48C6.12 12.4667 6.53 11.55 7.35 10.73C8.17 9.91 9.19333 9.4 10.42 9.2C10.38 8.72 10.26 8.35667 10.06 8.11C9.86 7.86333 9.58667 7.74 9.24 7.74C8.84 7.74 8.40667 7.90667 7.94 8.24C7.47333 8.57333 6.92 9.12 6.28 9.88C5.24 11.12 4.47667 11.9267 3.99 12.3C3.50333 12.6733 2.98 12.86 2.42 12.86C1.74 12.86 1.16667 12.6067 0.7 12.1C0.233333 11.5933 0 10.98 0 10.26C0 9.54 0.156667 8.80333 0.47 8.05C0.783333 7.29667 1.31333 6.39333 2.06 5.34C2.31333 4.99333 2.5 4.7 2.62 4.46C2.74 4.22 2.8 4.02667 2.8 3.88C2.8 3.78667 2.78333 3.71667 2.75 3.67C2.71667 3.62333 2.66667 3.6 2.6 3.6C2.46667 3.6 2.3 3.68333 2.1 3.85C1.9 4.01667 1.66667 4.27333 1.4 4.62L0 3.2C0.426667 2.68 0.86 2.28333 1.3 2.01C1.74 1.73667 2.17333 1.6 2.6 1.6C3.21333 1.6 3.73333 1.81333 4.16 2.24C4.58667 2.66667 4.8 3.2 4.8 3.84C4.8 4.22667 4.7 4.65333 4.5 5.12C4.3 5.58667 3.96667 6.14667 3.5 6.8C2.99333 7.52 2.61667 8.15333 2.37 8.7C2.12333 9.24667 2 9.72667 2 10.14C2 10.3667 2.03667 10.5433 2.11 10.67C2.18333 10.7967 2.28667 10.86 2.42 10.86C2.55333 10.86 2.67 10.8233 2.77 10.75C2.87 10.6767 3.05333 10.5 3.32 10.22C3.49333 10.0333 3.7 9.80333 3.94 9.53C4.18 9.25667 4.47333 8.92 4.82 8.52C5.66 7.52 6.42 6.80667 7.1 6.38C7.78 5.95333 8.49333 5.74 9.24 5.74C10.1333 5.74 10.8667 6.04 11.44 6.64C12.0133 7.24 12.34 8.06 12.42 9.1H14.4V11.1H12.42C12.3133 12.5933 11.9233 13.7833 11.25 14.67C10.5767 15.5567 9.72 16 8.68 16ZM8.72 14C9.14667 14 9.50667 13.7567 9.8 13.27C10.0933 12.7833 10.2933 12.1067 10.4 11.24C9.78667 11.3867 9.25333 11.6767 8.8 12.11C8.34667 12.5433 8.12 12.9733 8.12 13.4C8.12 13.5867 8.17333 13.7333 8.28 13.84C8.38667 13.9467 8.53333 14 8.72 14ZM13.6 4.8C12.9333 4.8 12.3667 4.56667 11.9 4.1C11.4333 3.63333 11.2 3.06667 11.2 2.4C11.2 1.73333 11.4333 1.16667 11.9 0.7C12.3667 0.233333 12.9333 0 13.6 0C14.2667 0 14.8333 0.233333 15.3 0.7C15.7667 1.16667 16 1.73333 16 2.4C16 3.06667 15.7667 3.63333 15.3 4.1C14.8333 4.56667 14.2667 4.8 13.6 4.8Z" fill={fill}/>
</g>
<defs>
<clipPath id="clip0_443_8">
<rect width="16" height="16" fill="white"/>
</clipPath>
</defs>
</svg>
