<svg width="16" height="17" viewBox="0 0 16 17" fill="none" xmlns="http://www.w3.org/2000/svg">
<path d="M8.68 16.4929C7.96 16.4929 7.35333 16.2463 6.86 15.7529C6.36667 15.2596 6.12 14.6663 6.12 13.9729C6.12 12.9596 6.53 12.0429 7.35 11.2229C8.17 10.4029 9.19333 9.89292 10.42 9.69292C10.38 9.21292 10.26 8.84959 10.06 8.60292C9.86 8.35625 9.58667 8.23292 9.24 8.23292C8.84 8.23292 8.40667 8.39959 7.94 8.73292C7.47333 9.06625 6.92 9.61292 6.28 10.3729C5.24 11.6129 4.47667 12.4196 3.99 12.7929C3.50333 13.1663 2.98 13.3529 2.42 13.3529C1.74 13.3529 1.16667 13.0996 0.7 12.5929C0.233333 12.0863 0 11.4729 0 10.7529C0 10.0329 0.156667 9.29625 0.47 8.54292C0.783333 7.78959 1.31333 6.88625 2.06 5.83292C2.31333 5.48625 2.5 5.19292 2.62 4.95292C2.74 4.71292 2.8 4.51959 2.8 4.37292C2.8 4.27959 2.78333 4.20959 2.75 4.16292C2.71667 4.11625 2.66667 4.09292 2.6 4.09292C2.46667 4.09292 2.3 4.17625 2.1 4.34292C1.9 4.50959 1.66667 4.76625 1.4 5.11292L0 3.69292C0.426667 3.17292 0.86 2.77625 1.3 2.50292C1.74 2.22959 2.17333 2.09292 2.6 2.09292C3.21333 2.09292 3.73333 2.30625 4.16 2.73292C4.58667 3.15959 4.8 3.69292 4.8 4.33292C4.8 4.71959 4.7 5.14625 4.5 5.61292C4.3 6.07959 3.96667 6.63959 3.5 7.29292C2.99333 8.01292 2.61667 8.64625 2.37 9.19292C2.12333 9.73959 2 10.2196 2 10.6329C2 10.8596 2.03667 11.0363 2.11 11.1629C2.18333 11.2896 2.28667 11.3529 2.42 11.3529C2.55333 11.3529 2.67 11.3163 2.77 11.2429C2.87 11.1696 3.05333 10.9929 3.32 10.7129C3.49333 10.5263 3.7 10.2963 3.94 10.0229C4.18 9.74959 4.47333 9.41292 4.82 9.01292C5.66 8.01292 6.42 7.29959 7.1 6.87292C7.78 6.44625 8.49333 6.23292 9.24 6.23292C10.1333 6.23292 10.8667 6.53292 11.44 7.13292C12.0133 7.73292 12.34 8.55292 12.42 9.59292H14.4V11.5929H12.42C12.3133 13.0863 11.9233 14.2763 11.25 15.1629C10.5767 16.0496 9.72 16.4929 8.68 16.4929ZM8.72 14.4929C9.14667 14.4929 9.50667 14.2496 9.8 13.7629C10.0933 13.2763 10.2933 12.5996 10.4 11.7329C9.78667 11.8796 9.25333 12.1696 8.8 12.6029C8.34667 13.0363 8.12 13.4663 8.12 13.8929C8.12 14.0796 8.17333 14.2263 8.28 14.3329C8.38667 14.4396 8.53333 14.4929 8.72 14.4929ZM13.6 5.29292C12.9333 5.29292 12.3667 5.05959 11.9 4.59292C11.4333 4.12625 11.2 3.55959 11.2 2.89292C11.2 2.22625 11.4333 1.65959 11.9 1.19292C12.3667 0.726253 12.9333 0.49292 13.6 0.49292C14.2667 0.49292 14.8333 0.726253 15.3 1.19292C15.7667 1.65959 16 2.22625 16 2.89292C16 3.55959 15.7667 4.12625 15.3 4.59292C14.8333 5.05959 14.2667 5.29292 13.6 5.29292Z" fill="#959595"/>
</svg>
