<svg width="152" height="61" viewBox="0 0 152 61" fill="none" xmlns="http://www.w3.org/2000/svg">
    <path fill-rule="evenodd" clip-rule="evenodd" d="M22.7638 46.2779C16.983 46.3257 11.2138 44.1635 6.83237 39.7821C-1.91161 31.0381 -1.81707 16.7668 7.04352 7.90619C15.9041 -0.954403 30.1754 -1.04894 38.9194 7.69504C44.3606 13.1362 46.3792 20.7177 44.9928 27.8039C55.9623 30.1013 68.9204 31.3548 82.9857 30.3415C82.0175 29.7295 81.1022 29.0021 80.2592 28.1591C74.0436 21.9435 74.1108 11.7988 80.4093 5.50029C86.7078 -0.798204 96.8525 -0.865405 103.068 5.35019C109.038 11.3196 109.212 20.9131 103.637 27.243C118.272 23.8712 133.572 17.7594 148.703 7.75276L151.461 11.9232C127.233 27.9458 102.582 34.3411 80.6638 35.4985C81.737 36.0835 82.7445 36.8293 83.6513 37.7361C88.8134 42.8982 88.7576 51.3235 83.5267 56.5544C78.2957 61.7854 69.8705 61.8412 64.7084 56.6791C59.5463 51.517 59.6021 43.0917 64.833 37.8608C65.7445 36.9493 66.753 36.195 67.8242 35.598C60.031 35.3087 52.7152 34.4015 46.0456 33.1108C49.183 38.2201 48.4985 45.0419 44.0191 49.5213C38.7881 54.7523 30.3629 54.8081 25.2008 49.646C24.1875 48.6327 23.3753 47.4938 22.7638 46.2779Z" fill="#6F6F6F"/>
</svg>
