<svg width="16" height="16" viewBox="0 0 16 16" fill="#959595" xmlns="http://www.w3.org/2000/svg">
<path d="M15.9958 7.98433C15.9958 8.54683 15.5791 8.98745 15.1068 8.98745H14.2179L14.2373 13.9937C14.2373 14.0781 14.2318 14.1625 14.2234 14.2468V14.75C14.2234 15.4406 13.7262 16 13.1122 16H12.6678C12.6372 16 12.6066 16 12.5761 15.9968C12.5372 16 12.4983 16 12.4594 16H11.5565H10.8898C10.2759 16 9.77862 15.4406 9.77862 14.75V14V12C9.77862 11.4468 9.38136 11 8.88965 11H7.11172C6.62001 11 6.22276 11.4468 6.22276 12V14V14.75C6.22276 15.4406 5.72549 16 5.11155 16H4.44483H3.55864C3.51697 16 3.4753 15.9968 3.43363 15.9937C3.4003 15.9968 3.36696 16 3.33362 16H2.88914C2.2752 16 1.77794 15.4406 1.77794 14.75V11.25C1.77794 11.2218 1.77794 11.1906 1.78071 11.1625V8.98745H0.888971C0.388928 8.98745 6.31809e-06 8.54995 6.31809e-06 7.98433C6.31809e-06 7.70308 0.0833467 7.45308 0.277808 7.23433L7.40064 0.249951C7.5951 0.0312014 7.81734 -4.86374e-05 8.0118 -4.86374e-05C8.20626 -4.86374e-05 8.4285 0.0624514 8.59518 0.218701L15.6902 7.23433C15.9125 7.45308 16.0236 7.70308 15.9958 7.98433Z" fill={fill}/>
</svg>
