<svg width="19" height="17" viewBox="0 0 19 17" fill="none" xmlns="http://www.w3.org/2000/svg">
<path d="M18.8365 8.34375C18.8365 8.90625 18.3678 9.34688 17.8365 9.34688H16.8365L16.8584 14.3531C16.8584 14.4375 16.8521 14.5219 16.8428 14.6062V15.1094C16.8428 15.8 16.2834 16.3594 15.5928 16.3594H15.0928C15.0584 16.3594 15.024 16.3594 14.9896 16.3562C14.9459 16.3594 14.9021 16.3594 14.8584 16.3594H13.8428H13.0928C12.4021 16.3594 11.8428 15.8 11.8428 15.1094V14.3594V12.3594C11.8428 11.8063 11.3959 11.3594 10.8428 11.3594H8.84277C8.28965 11.3594 7.84277 11.8063 7.84277 12.3594V14.3594V15.1094C7.84277 15.8 7.2834 16.3594 6.59277 16.3594H5.84277H4.8459C4.79902 16.3594 4.75215 16.3562 4.70527 16.3531C4.66777 16.3562 4.63027 16.3594 4.59277 16.3594H4.09277C3.40215 16.3594 2.84277 15.8 2.84277 15.1094V11.6094C2.84277 11.5813 2.84277 11.55 2.8459 11.5219V9.34688H1.84277C1.28027 9.34688 0.842773 8.90938 0.842773 8.34375C0.842773 8.0625 0.936523 7.8125 1.15527 7.59375L9.16777 0.609375C9.38652 0.390625 9.63652 0.359375 9.85527 0.359375C10.074 0.359375 10.324 0.421875 10.5115 0.578125L18.4928 7.59375C18.7428 7.8125 18.8678 8.0625 18.8365 8.34375Z" fill="#9D9D9D"/>
</svg>
