<svg width="57" height="56" viewBox="0 0 57 56" fill="none" xmlns="http://www.w3.org/2000/svg">
<path fill-rule="evenodd" clip-rule="evenodd" d="M28.9829 0C27.6022 0 26.4829 1.11929 26.4829 2.5V25.5H3.48291C2.1022 25.5 0.98291 26.6193 0.98291 28C0.98291 29.3807 2.1022 30.5 3.48291 30.5H26.4829V53.5C26.4829 54.8807 27.6022 56 28.9829 56C30.3636 56 31.4829 54.8807 31.4829 53.5V30.5H54.4829C55.8636 30.5 56.9829 29.3807 56.9829 28C56.9829 26.6193 55.8636 25.5 54.4829 25.5H31.4829V2.5C31.4829 1.11929 30.3636 0 28.9829 0Z" fill="black"/>
</svg>
