<svg width="16" height="16" viewBox="0 0 16 16" fill="#959595" xmlns="http://www.w3.org/2000/svg">
<path d="M16 8C16 8.29313 15.8989 8.57426 15.7188 8.78154C15.5388 8.98882 15.2946 9.10526 15.04 9.10526H0.96C0.705392 9.10526 0.461212 8.98882 0.281178 8.78154C0.101143 8.57426 0 8.29313 0 8C0 7.70687 0.101143 7.42574 0.281178 7.21846C0.461212 7.01118 0.705392 6.89474 0.96 6.89474H15.04C15.2946 6.89474 15.5388 7.01118 15.7188 7.21846C15.8989 7.42574 16 7.70687 16 8ZM0.96 3.21053H15.04C15.2946 3.21053 15.5388 3.09408 15.7188 2.8868C15.8989 2.67953 16 2.3984 16 2.10526C16 1.81213 15.8989 1.531 15.7188 1.32372C15.5388 1.11645 15.2946 1 15.04 1H0.96C0.705392 1 0.461212 1.11645 0.281178 1.32372C0.101143 1.531 0 1.81213 0 2.10526C0 2.3984 0.101143 2.67953 0.281178 2.8868C0.461212 3.09408 0.705392 3.21053 0.96 3.21053ZM15.04 12.7895H0.96C0.705392 12.7895 0.461212 12.9059 0.281178 13.1132C0.101143 13.3205 0 13.6016 0 13.8947C0 14.1879 0.101143 14.469 0.281178 14.6763C0.461212 14.8836 0.705392 15 0.96 15H15.04C15.2946 15 15.5388 14.8836 15.7188 14.6763C15.8989 14.469 16 14.1879 16 13.8947C16 13.6016 15.8989 13.3205 15.7188 13.1132C15.5388 12.9059 15.2946 12.7895 15.04 12.7895Z" fill={fill}/>
</svg>
