<svg width="18" height="14" viewBox="0 0 18 14" fill="none" xmlns="http://www.w3.org/2000/svg">
    <path d="M17.2111 7C17.2111 7.29313 17.1049 7.57426 16.9159 7.78154C16.7269 7.98882 16.4705 8.10526 16.2031 8.10526H1.41913C1.15179 8.10526 0.895406 7.98882 0.706369 7.78154C0.517333 7.57426 0.411133 7.29313 0.411133 7C0.411133 6.70687 0.517333 6.42574 0.706369 6.21846C0.895406 6.01118 1.15179 5.89474 1.41913 5.89474H16.2031C16.4705 5.89474 16.7269 6.01118 16.9159 6.21846C17.1049 6.42574 17.2111 6.70687 17.2111 7ZM1.41913 2.21053H16.2031C16.4705 2.21053 16.7269 2.09408 16.9159 1.8868C17.1049 1.67953 17.2111 1.3984 17.2111 1.10526C17.2111 0.812129 17.1049 0.531001 16.9159 0.323724C16.7269 0.116447 16.4705 0 16.2031 0H1.41913C1.15179 0 0.895406 0.116447 0.706369 0.323724C0.517333 0.531001 0.411133 0.812129 0.411133 1.10526C0.411133 1.3984 0.517333 1.67953 0.706369 1.8868C0.895406 2.09408 1.15179 2.21053 1.41913 2.21053ZM16.2031 11.7895H1.41913C1.15179 11.7895 0.895406 11.9059 0.706369 12.1132C0.517333 12.3205 0.411133 12.6016 0.411133 12.8947C0.411133 13.1879 0.517333 13.469 0.706369 13.6763C0.895406 13.8836 1.15179 14 1.41913 14H16.2031C16.4705 14 16.7269 13.8836 16.9159 13.6763C17.1049 13.469 17.2111 13.1879 17.2111 12.8947C17.2111 12.6016 17.1049 12.3205 16.9159 12.1132C16.7269 11.9059 16.4705 11.7895 16.2031 11.7895Z" fill="#959595"/>
</svg>
