<svg width="17" height="15" viewBox="0 0 17 15" fill="none" xmlns="http://www.w3.org/2000/svg">
<path d="M16.5 7.49292C16.5 7.78605 16.3989 8.06718 16.2188 8.27446C16.0388 8.48174 15.7946 8.59818 15.54 8.59818H1.46C1.20539 8.59818 0.961212 8.48174 0.781178 8.27446C0.601143 8.06718 0.5 7.78605 0.5 7.49292C0.5 7.19979 0.601143 6.91866 0.781178 6.71138C0.961212 6.5041 1.20539 6.38766 1.46 6.38766H15.54C15.7946 6.38766 16.0388 6.5041 16.2188 6.71138C16.3989 6.91866 16.5 7.19979 16.5 7.49292ZM1.46 2.70345H15.54C15.7946 2.70345 16.0388 2.587 16.2188 2.37972C16.3989 2.17245 16.5 1.89132 16.5 1.59818C16.5 1.30505 16.3989 1.02392 16.2188 0.816644C16.0388 0.609367 15.7946 0.49292 15.54 0.49292H1.46C1.20539 0.49292 0.961212 0.609367 0.781178 0.816644C0.601143 1.02392 0.5 1.30505 0.5 1.59818C0.5 1.89132 0.601143 2.17245 0.781178 2.37972C0.961212 2.587 1.20539 2.70345 1.46 2.70345ZM15.54 12.2824H1.46C1.20539 12.2824 0.961212 12.3988 0.781178 12.6061C0.601143 12.8134 0.5 13.0945 0.5 13.3877C0.5 13.6808 0.601143 13.9619 0.781178 14.1692C0.961212 14.3765 1.20539 14.4929 1.46 14.4929H15.54C15.7946 14.4929 16.0388 14.3765 16.2188 14.1692C16.3989 13.9619 16.5 13.6808 16.5 13.3877C16.5 13.0945 16.3989 12.8134 16.2188 12.6061C16.0388 12.3988 15.7946 12.2824 15.54 12.2824Z" fill="#9D9D9D"/>
</svg>
