<svg width="203" height="171" viewBox="0 0 193 161" fill="none" xmlns="http://www.w3.org/2000/svg">
    <path d="M89.356 161C133.793 161 169.815 124.959 169.815 80.5C169.815 36.0411 133.793 0 89.356 0C44.9194 0 8.89648 36.0411 8.89648 80.5C8.89648 124.959 44.9194 161 89.356 161Z" fill="white"/>
    <mask id="mask0_87_2" style="mask-type:luminance" maskUnits="userSpaceOnUse" x="0" y="11" width="193" height="137">
        <path d="M192.186 11.949H0V147.92H192.186V11.949Z" fill="white"/>
    </mask>
    <g mask="url(#mask0_87_2)">
        <mask id="mask1_87_2" style="mask-type:luminance" maskUnits="userSpaceOnUse" x="0" y="11" width="193" height="137">
            <path d="M192.186 11.949H0V147.92H192.186V11.949Z" fill="white"/>
        </mask>
        <g mask="url(#mask1_87_2)">
            <path d="M117.192 71.7942C116.723 72.1688 116.489 72.6331 116.487 73.1889C116.487 73.7446 116.698 74.1632 117.125 74.4411C117.552 74.7207 118.06 74.8597 118.649 74.8614C119.184 74.8614 119.665 74.6644 120.094 74.267C120.523 73.8695 120.738 73.428 120.739 72.9444C120.739 72.4854 120.548 72.0861 120.161 71.7467C119.773 71.4072 119.326 71.2366 118.818 71.2349C118.203 71.2331 117.661 71.4195 117.194 71.7924" fill="#FF7DC4"/>
            <path d="M132.234 109.296C121.332 110.109 110.468 107.574 99.9438 104.612C93.6507 102.841 88.3806 101.044 81.3104 98.6784C87.9042 89.364 94.396 80.1939 100.988 70.8813C101.663 69.928 102.264 68.7127 103.377 68.3539C105.242 67.7524 107.476 67.8492 109.598 67.7982L98.9805 83.481C97.8274 85.2186 96.9748 86.601 96.4246 87.6264C95.8744 88.6535 95.5984 89.5047 95.5966 90.1801C95.5931 91.6311 96.5002 92.3574 98.3178 92.3627C99.601 92.3662 100.837 92.018 102.029 91.3198C103.219 90.6215 104.592 89.561 106.146 88.1382C106.392 87.9166 106.641 87.6791 106.891 87.4329C106.666 87.8392 106.487 88.205 106.364 88.5198C106.161 89.0387 106.061 89.5399 106.059 90.0236C106.059 90.7253 106.297 91.2934 106.777 91.7296C107.257 92.1657 107.939 92.3838 108.821 92.3873C109.756 92.3891 110.779 92.1147 111.89 91.5607C113.001 91.0085 114.334 90.0324 115.888 88.6324C115.993 88.5374 116.102 88.4372 116.209 88.3387C115.376 89.5663 114.543 90.7957 113.713 92.0356L117.763 91.9371C118.111 91.3338 118.581 90.6092 119.171 89.765C119.76 88.9208 120.425 88.045 121.163 87.141C121.901 86.237 122.684 85.3312 123.515 84.4272C124.345 83.5214 125.164 82.7142 125.967 82.0036C126.771 81.2931 127.534 80.7145 128.258 80.2677C128.98 79.8228 129.61 79.5994 130.144 79.6012C130.518 79.6012 130.798 79.6874 130.986 79.858C131.172 80.0286 131.266 80.2449 131.266 80.5104C131.266 81.068 130.976 81.7187 130.399 82.4679C129.822 83.2154 129.186 84.0051 128.488 84.8387C127.79 85.6706 127.154 86.5219 126.577 87.3907C126.001 88.2595 125.711 89.1055 125.709 89.9268C125.709 90.5793 125.946 91.1597 126.426 91.6698C126.906 92.178 127.653 92.4348 128.669 92.4366C129.712 92.4383 130.721 92.164 131.698 91.61C132.675 91.056 133.86 90.1168 135.252 88.7907C135.681 88.3862 136.093 87.9781 136.502 87.5701C136.393 88.052 136.335 88.5321 136.333 89.0105C136.332 89.9303 136.617 90.7341 137.19 91.4235C137.763 92.1147 138.598 92.4594 139.693 92.463C140.414 92.4647 141.103 92.3645 141.758 92.1604C142.414 91.9564 143.029 91.6926 143.604 91.3672C144.179 91.0419 144.729 90.669 145.251 90.2469C145.773 89.8248 146.248 89.3851 146.679 88.9261L146.758 88.9982C146.141 89.7949 145.483 90.6989 144.787 91.712C144.089 92.7268 143.346 93.7451 142.555 94.7704C141.764 95.7958 140.92 96.7983 140.021 97.7744C139.123 98.7505 138.172 99.6246 137.168 100.397C136.165 101.167 135.101 101.781 133.976 102.238C132.853 102.695 131.663 102.922 130.406 102.919C129.712 102.917 129.089 102.813 128.543 102.606C127.996 102.398 127.528 102.113 127.14 101.751C126.755 101.387 126.454 100.958 126.242 100.462C126.029 99.9658 125.923 99.4276 125.925 98.8472C125.927 97.6372 126.286 96.6963 126.994 96.0209C127.704 95.3456 128.768 94.9973 130.184 94.978V94.7247C129.919 94.7001 129.543 94.6632 129.063 94.6139C128.581 94.5629 128.221 94.5383 127.98 94.5383C127.312 94.5365 126.651 94.6262 125.994 94.8056C125.338 94.985 124.756 95.2506 124.248 95.5988C123.74 95.947 123.331 96.3815 123.023 96.902C122.714 97.4209 122.559 98.0066 122.557 98.6591C122.555 99.5296 122.754 100.261 123.153 100.854C123.552 101.447 124.092 101.932 124.774 102.308C125.454 102.685 126.236 102.952 127.117 103.112C127.998 103.272 128.935 103.353 129.923 103.355C131.847 103.36 133.651 103.121 135.337 102.643C137.023 102.162 138.587 101.489 140.032 100.624C141.477 99.7565 142.809 98.7083 144.029 97.4789C145.065 96.4342 145.953 95.2506 146.856 94.0511C148.21 92.2501 151.346 87.2482 151.346 87.2482C151.583 86.8701 151.822 86.4902 152.056 86.1121C153.452 83.8433 154.874 81.5991 156.322 79.3778L152.232 79.5853L151.305 81.1418C150.987 80.2466 150.534 79.6293 149.946 79.2899C149.359 78.9504 148.558 78.7798 147.542 78.7763C146.232 78.7728 144.908 79.0841 143.571 79.7102C142.231 80.3363 141.027 81.1366 139.956 82.1127C138.884 83.0888 138.012 84.188 137.343 85.4068C137.095 85.8588 136.893 86.3073 136.734 86.754C136.283 87.2113 135.817 87.6721 135.332 88.1399C133.858 89.5381 132.686 90.4967 131.816 91.0137C130.946 91.5326 130.323 91.7894 129.949 91.7894C129.574 91.7894 129.309 91.6979 129.147 91.515C128.987 91.3338 128.908 91.0982 128.908 90.808C128.91 90.1308 129.198 89.401 129.775 88.6166C130.351 87.8321 130.988 87.0126 131.686 86.1561C132.382 85.2995 133.018 84.443 133.596 83.5865C134.173 82.73 134.463 81.8893 134.465 81.068C134.467 80.4155 134.24 79.865 133.788 79.4165C133.335 78.968 132.667 78.7429 131.784 78.7411C130.742 78.7376 129.699 79.0261 128.655 79.6029C127.611 80.1816 126.634 80.8552 125.723 81.6273C124.812 82.3994 124.002 83.182 123.292 83.9787C122.582 84.7754 122.038 85.3892 121.664 85.8237L121.583 85.7515L126.811 79.1632L122.241 79.2987C120.845 81.4954 119.43 83.6375 117.995 85.7252C117.806 86.0013 117.617 86.2792 117.429 86.5553C116.937 87.0284 116.438 87.505 115.926 87.9869C114.453 89.3376 113.228 90.2891 112.252 90.8431C111.275 91.3972 110.519 91.6733 109.985 91.6715C109.744 91.6715 109.563 91.5801 109.443 91.3989C109.324 91.216 109.264 90.9821 109.264 90.6919C109.264 90.3296 109.406 89.8653 109.688 89.2972C109.969 88.7309 110.398 87.9992 110.976 87.1075C111.553 86.2141 112.298 85.1342 113.209 83.8679C114.121 82.5998 115.206 81.075 116.468 79.2881L112.339 79.4587C111.131 81.1489 110.125 82.5664 109.322 83.7131C108.747 84.5327 108.257 85.2521 107.847 85.8799C106.93 86.8297 106.001 87.7337 105.061 88.5796C103.962 89.568 102.932 90.3384 101.969 90.8924C101.006 91.4464 100.243 91.7225 99.6819 91.7208C99.093 91.7208 98.8012 91.3919 98.803 90.7394C98.803 90.1115 99.1124 89.2954 99.7311 88.2947C100.348 87.294 101.18 86.0312 102.226 84.5116L114.657 66.7007L114.525 66.7077C111.001 66.6919 107.448 66.6726 104.514 66.4809C107.659 61.5264 110.848 56.5158 115.105 52.4794C119.363 48.4431 124.87 45.4162 130.736 45.3054C125.113 43.9301 119.082 45.9403 114.416 49.3699C109.751 52.7995 106.218 57.52 102.846 62.2282C101.985 63.4312 101.211 64.8259 99.9104 65.5276C97.3334 66.9153 94.9374 66.3806 89.103 66.3665C94.5313 57.3195 100.9 48.6365 109.282 42.2311C117.663 35.8257 128.293 31.8615 138.765 33.1173C143.418 33.6765 148.15 35.3861 151.209 38.9405C154.675 42.9681 155.431 48.9355 153.714 53.9656C151.652 60.0016 146.139 64.7203 139.858 65.8213C133.577 66.9223 127.008 64.9789 122.798 59.386C123.306 60.0333 123.944 61.2064 124.934 62.3601C127.514 65.3658 131.851 66.903 134.704 67.3761C138.459 67.9987 142.266 67.8122 145.181 66.7218C147.974 65.6771 150.715 63.9658 152.87 61.748C154.232 60.3481 155.362 58.7459 156.125 56.9836C157.885 52.9173 158.149 48.0808 156.579 44.0268C155.427 41.0545 153.163 38.4375 150.569 36.5785C146.81 33.8858 142.166 32.7004 137.559 32.3329C126.511 31.45 115.181 34.7212 106.299 41.3553C98.0822 47.4916 92.1811 56.1376 85.9143 64.256C85.2269 65.146 84.7224 65.8952 83.6695 66.2892C81.2278 67.2055 78.8582 66.1062 75.9981 67.8158C78.5101 67.8791 80.4244 67.9477 83.0314 67.974C77.2286 76.1786 71.2448 84.7174 65.4403 92.9237C65.0079 93.5358 64.5509 94.1689 63.8899 94.5207C62.9793 95.0079 61.8754 94.8654 60.8506 94.7335C54.3693 93.9034 47.765 94.0476 41.3276 95.1591C35.1997 96.2161 28.9558 98.3143 24.6789 102.829C20.402 107.344 18.739 114.773 22.2372 119.915C24.8986 123.829 29.8066 125.591 34.5071 126.136C43.2261 127.151 52.1509 124.755 59.7114 120.299C67.2738 115.84 73.5406 109.409 78.6244 102.25C79.1482 101.514 79.7371 100.713 80.616 100.504C81.2876 100.344 81.9837 100.571 82.6358 100.794C94.1868 104.743 105.754 108.786 117.719 111.201C126.001 112.872 134.688 113.733 142.82 111.44C150.95 109.147 158.449 103.156 160.576 94.9762C154.216 103.874 143.133 108.487 132.231 109.3M140.913 85.9028C141.396 84.8159 142.02 83.7712 142.785 82.7705C143.55 81.7697 144.414 80.9255 145.378 80.2378C146.341 79.5502 147.318 79.209 148.306 79.2107C148.681 79.2107 148.974 79.2793 149.189 79.413C149.403 79.5467 149.561 79.7225 149.669 79.9406C149.774 80.1587 149.848 80.3944 149.888 80.6476C149.927 80.9009 149.946 81.1612 149.946 81.4268C149.946 81.8858 149.837 82.4468 149.621 83.1116C149.405 83.7765 149.11 84.4694 148.734 85.194C148.357 85.9186 147.914 86.6432 147.405 87.3661C146.895 88.0907 146.359 88.7362 145.796 89.3025C145.234 89.8688 144.657 90.3331 144.068 90.6936C143.479 91.0559 142.904 91.2353 142.344 91.2336C141.435 91.2318 140.848 90.9891 140.581 90.5037C140.315 90.02 140.183 89.4273 140.185 88.7256C140.187 87.9271 140.429 86.9844 140.913 85.8993M71.8988 105.645C66.0169 113.025 59.1718 119.247 50.3068 122.863C44.5235 125.223 38.5819 126.287 32.424 124.291C26.3365 122.316 23.8913 117.179 25.0673 110.902C26.3436 104.09 32.2184 99.3661 39.1532 97.3892C50.2119 94.2375 62.9459 96.4395 62.9459 96.4395C57.05 103.503 52.2018 110.434 41.0271 110.691C41.0271 110.691 44.2563 111.065 46.8491 110.816C52.1913 110.302 57.5458 107.507 61.9018 103.081C63.4909 101.466 64.8251 99.6035 66.3632 97.9327C66.7605 97.5018 67.5885 97.0533 68.0543 97.1571C70.5751 97.7181 73.785 98.3636 76.6204 99.2764C74.8766 101.638 73.5582 103.564 71.8988 105.643M78.5963 96.4377C77.8562 97.5071 76.6186 97.5352 75.7133 97.3752C74.1735 97.1008 72.3435 96.6717 71.229 96.4131C70.6208 96.2724 69.3358 96.0051 68.0121 95.6058C69.9493 92.8305 71.6667 90.3507 73.4053 87.8867C77.8931 81.5253 82.3792 75.1621 86.911 68.8323C87.2626 68.3416 87.5245 67.9195 88.0782 67.9002C90.8328 67.8017 94.229 68.0215 96.9871 68.0549C97.4213 68.0602 97.6322 68.0549 98.425 68.0901C97.0855 70.0107 95.8796 71.7466 94.7107 73.4139C89.2788 81.1594 83.9806 88.6605 78.5963 96.4395" fill="#FF7DC4"/>
        </g>
    </g>
</svg>

